<?xml version="1.0" encoding="utf-8"?>
<!-- Generator: Adobe Illustrator 16.0.0, SVG Export Plug-In . SVG Version: 6.00 Build 0)  -->
<!DOCTYPE svg PUBLIC "-//W3C//DTD SVG 1.1//EN" "http://www.w3.org/Graphics/SVG/1.1/DTD/svg11.dtd">
<svg version="1.1" id="_x37C_" xmlns="http://www.w3.org/2000/svg" xmlns:xlink="http://www.w3.org/1999/xlink" x="0px" y="0px"
	 width="224.988px" height="177px" viewBox="0 0 224.988 177" enable-background="new 0 0 224.988 177" xml:space="preserve">
<linearGradient id="SVGID_1_" gradientUnits="userSpaceOnUse" x1="126.9915" y1="-354.1592" x2="296.653" y2="-216.77" gradientTransform="matrix(1 0 0 -1 -88 -184)">
	<stop  offset="0" style="stop-color:#008CD6"/>
	<stop  offset="1" style="stop-color:#9FD9F6"/>
</linearGradient>
<path fill="url(#SVGID_1_)" d="M103.623,92.736L89.13,80.32c-0.653-0.639-1.323-1.258-2.009-1.857
	c-4.463-5.564-7.134-12.628-7.134-20.313c0-17.95,14.558-32.507,32.507-32.507c15.864,0,29.075,11.373,31.933,26.41l17.144,3.281
	c-1.459-25.835-22.875-46.343-49.075-46.343c-27.146,0-49.159,22.015-49.159,49.159c0,3.201,0.308,6.332,0.892,9.363
	c-2.469-0.416-5.002-0.633-7.582-0.633c-26.427,0-47.856,22.646-47.856,50.567c0,25.971,18.543,47.373,42.399,50.236l-2.086-18.021
	c-13.699-3.568-23.86-16.641-23.86-32.215c0-18.324,14.062-33.184,31.403-33.184c7.854,0,15.035,3.049,20.543,8.086l0.158,0.164
	h0.002L77.34,92.52l0.402,0.349c2.362,2.25,4.495,4.063,6.399,5.526l7.75,6.654L103.623,92.736L103.623,92.736z M134.624,153.316
	l-7.862-6.635l12.003-12.005l7.604,6.464L134.624,153.316L134.624,153.316z M72.122,146.322c3.802-2.279,7.108-5.373,9.711-9.057
	l22.53-23.709l0.003,0.014l27.555-28.919c1.721-2.13,3.604-4.106,5.63-5.909l0.035-0.037l0.002,0.003
	c8.316-7.382,19.046-11.831,30.756-11.831c26.427,0,47.858,22.645,47.858,50.566c0,27.923-21.433,50.566-47.858,50.566
	c-13.155,0-23.343-5.543-33.722-14.695l11.741-12.176c9.025,6.846,12.772,9.701,21.979,9.486
	c9.206-0.217,31.405-14.859,31.405-33.184c0-18.325-14.064-33.183-31.405-33.183c-7.292,0-14.003,2.627-19.334,7.034l-5.333,5.611
	c-2.374,2.695-3.281,3.656-6.088,6.586l0.076-0.078l-17.04,17.883l-0.012-0.123l-27.14,28.559v-0.002
	c-5.125,6.518-11.768,11.649-19.354,14.799L72.122,146.322z"/>
</svg>
